<svg xmlns="http://www.w3.org/2000/svg" version="1.1" xmlns:xlink="http://www.w3.org/1999/xlink" xmlns:svgjs="http://svgjs.dev/svgjs" width="1000" height="625" viewBox="0 0 1000 625"><g transform="matrix(1,0,0,1,0,0)"><svg viewBox="0 0 576 360" data-background-color="#010536" preserveAspectRatio="xMidYMid meet" height="625" width="1000" xmlns="http://www.w3.org/2000/svg" xmlns:xlink="http://www.w3.org/1999/xlink"><g id="tight-bounds" transform="matrix(1,0,0,1,0,0)"><svg viewBox="0 0 576 360" height="360" width="576"><g><svg></svg></g><g><svg viewBox="0 0 576 360" height="360" width="576"><g><path xmlns="http://www.w3.org/2000/svg" d="M132.115 90l155.885-90 155.885 90v180l-155.885 90-155.885-90z" fill="#fbfbf8" fill-rule="nonzero" stroke="none" stroke-width="1" stroke-linecap="butt" stroke-linejoin="miter" stroke-miterlimit="10" stroke-dasharray="" stroke-dashoffset="0" font-family="none" font-weight="none" font-size="none" text-anchor="none" style="mix-blend-mode: normal" data-fill-palette-color="tertiary"></path></g><g transform="matrix(1,0,0,1,183.16285714285715,99)"><svg viewBox="0 0 209.67428571428567 162" height="162" width="209.67428571428567"><g><svg viewBox="0 0 209.67428571428573 162.00000000000003" height="162" width="209.67428571428567"><g><svg viewBox="0 0 209.67428571428573 162.00000000000003" height="162.00000000000003" width="209.67428571428573"><g id="textblocktransform"><svg viewBox="0 0 209.67428571428573 162.00000000000003" height="162.00000000000003" width="209.67428571428573" id="textblock"><g><svg viewBox="0 0 209.67428571428573 162.00000000000003" height="162.00000000000003" width="209.67428571428573"><g transform="matrix(1,0,0,1,0,0)"><svg width="209.67428571428573" viewBox="4.949999809265137 -35 45.29999923706055 35" height="162.00000000000003" data-palette-color="#010536"><path d="M22.9-19.8L22.9-18.3 8.05-18.3 23.35-33.5 6.45-33.5 6.45-1.5 25.85-1.5 25.85 0 4.95 0 4.95-35 27-35 11.7-19.8 22.9-19.8ZM35.05-1.5L50.25-1.5 50.25 0 33.55 0 33.55-29 35.05-29 35.05-1.5Z" opacity="1" transform="matrix(1,0,0,1,0,0)" fill="#010536" class="wordmark-text-0" data-fill-palette-color="quaternary" id="text-0"></path></svg></g></svg></g></svg></g></svg></g></svg></g></svg></g></svg></g><defs></defs></svg><rect width="576" height="360" fill="none" stroke="none" visibility="hidden"></rect></g></svg></g></svg>